<?xml version="1.0" standalone="no"?>
<!DOCTYPE svg PUBLIC "-//W3C//DTD SVG 1.1//EN" "http://www.w3.org/Graphics/SVG/1.1/DTD/svg11.dtd">
<svg xmlns="http://www.w3.org/2000/svg" xmlns:xlink="http://www.w3.org/1999/xlink" version="1.1" width="1000" height="1443" style="shape-rendering:geometricPrecision; text-rendering:geometricPrecision; image-rendering:optimizeQuality; fill-rule:evenodd; clip-rule:evenodd" viewBox="0 0 1000 1443">
<g><path style="opacity:0.974" fill="#67665a" d="M 477.5,183.5 C 522.21,181.227 566.21,185.727 609.5,197C 657.271,211.289 694.438,239.456 721,281.5C 751.951,336.685 771.951,395.685 781,458.5C 795.445,561.049 781.779,659.715 740,754.5C 709.05,826.436 654.884,868.936 577.5,882C 514.804,893.144 452.804,890.144 391.5,873C 346.646,857.804 311.479,830.304 286,790.5C 254.098,733.461 233.765,672.461 225,607.5C 211.321,500.226 227.988,397.892 275,300.5C 305.262,241.266 353.096,205.1 418.5,192C 438.137,187.923 457.804,185.09 477.5,183.5 Z"/></g>
<g><path style="opacity:1" fill="#fdfdfd" d="M 473.5,193.5 C 516.079,191.327 558.079,195.161 599.5,205C 644.354,217.547 679.187,243.38 704,282.5C 724.9,319.859 739.9,359.526 749,401.5C 778.895,528.76 767.228,652.094 714,771.5C 687.545,824.842 645.045,857.675 586.5,870C 522.656,883.085 459.322,881.085 396.5,864C 346.336,846.837 310.503,814.004 289,765.5C 226.683,617.654 224.683,468.988 283,319.5C 311.483,248.704 363.649,208.204 439.5,198C 451.024,196.785 462.358,195.285 473.5,193.5 Z"/></g>
<g><path style="opacity:1" fill="#6a695d" d="M 526.5,208.5 C 530.731,208.39 534.564,209.39 538,211.5C 539.583,224.004 541.917,236.337 545,248.5C 549.862,236.913 554.529,225.246 559,213.5C 562.786,212.205 566.62,212.205 570.5,213.5C 563.059,229.382 555.892,245.382 549,261.5C 545.606,262.456 542.106,262.789 538.5,262.5C 534.286,244.546 530.286,226.546 526.5,208.5 Z"/></g>
<g><path style="opacity:1" fill="#6b6a5d" d="M 461.5,209.5 C 463.833,209.5 466.167,209.5 468.5,209.5C 471.101,223.432 472.934,237.432 474,251.5C 470.445,259.365 464.278,263.865 455.5,265C 447.322,266.991 440.489,264.824 435,258.5C 432.02,245.459 429.52,232.292 427.5,219C 427.675,217.342 428.342,216.009 429.5,215C 432.429,214.223 435.263,214.39 438,215.5C 439.87,227.852 441.87,240.185 444,252.5C 444.5,254.333 445.667,255.5 447.5,256C 453.694,257.711 458.86,256.211 463,251.5C 461.825,237.776 459.992,224.11 457.5,210.5C 459.099,210.768 460.432,210.434 461.5,209.5 Z"/></g>
<g><path style="opacity:1" fill="#6a695c" d="M 601.5,221.5 C 604.647,221.737 607.647,222.57 610.5,224C 619.835,227.671 628.835,231.837 637.5,236.5C 636.333,238.833 635.167,241.167 634,243.5C 626.13,239.9 618.13,236.566 610,233.5C 607.614,236.301 605.78,239.467 604.5,243C 612.07,246.233 619.404,249.733 626.5,253.5C 625.528,256.132 624.195,258.465 622.5,260.5C 615.418,257.695 608.418,254.695 601.5,251.5C 599.502,255.823 597.502,260.157 595.5,264.5C 603.342,268.284 611.342,271.784 619.5,275C 620.143,278.091 619.31,280.925 617,283.5C 605.25,278.705 593.75,273.538 582.5,268C 589.261,252.649 595.594,237.149 601.5,221.5 Z"/></g>
<g><path style="opacity:1" fill="#6a695c" d="M 372.5,235.5 C 387.11,246.771 401.443,258.438 415.5,270.5C 413.062,272.804 410.229,274.47 407,275.5C 403.94,273.05 400.773,270.717 397.5,268.5C 392.751,271.625 387.917,274.625 383,277.5C 382.681,281.239 383.181,284.906 384.5,288.5C 382.268,290.963 379.602,292.963 376.5,294.5C 375.066,292.78 374.233,290.78 374,288.5C 370.833,273.333 367.667,258.167 364.5,243C 364.585,241.893 364.919,240.893 365.5,240C 368.239,238.974 370.572,237.474 372.5,235.5 Z"/></g>
<g><path style="opacity:1" fill="#f7f7f6" d="M 374.5,248.5 C 380.135,252.801 385.468,257.467 390.5,262.5C 387.086,264.957 383.586,267.291 380,269.5C 377.977,262.549 376.143,255.549 374.5,248.5 Z"/></g>
<g><path style="opacity:1" fill="#6a695c" d="M 672.5,264.5 C 679.577,271.256 685.744,278.923 691,287.5C 695.229,301.593 690.062,308.426 675.5,308C 674.584,307.626 673.75,307.126 673,306.5C 672.654,309.576 671.988,312.576 671,315.5C 666.652,320.015 662.152,324.349 657.5,328.5C 655.115,326.116 653.115,323.45 651.5,320.5C 655.004,316.496 658.837,312.83 663,309.5C 663.781,308.271 664.281,306.938 664.5,305.5C 662.436,300.372 659.602,295.705 656,291.5C 650.333,295.833 644.667,300.167 639,304.5C 636.833,301.667 634.667,298.833 632.5,296C 646.084,285.721 659.418,275.221 672.5,264.5 Z"/></g>
<g><path style="opacity:1" fill="#676659" d="M 486.5,276.5 C 522.688,274.751 558.022,279.251 592.5,290C 616.188,299.688 633.355,316.188 644,339.5C 669.768,400.675 682.602,464.508 682.5,531C 683.181,598.928 671.014,664.428 646,727.5C 635.436,754.397 616.603,772.897 589.5,783C 534.008,798.662 478.341,799.328 422.5,785C 398.357,777.189 379.857,762.356 367,740.5C 341.702,684.254 327.702,625.254 325,563.5C 320.92,493.057 330.92,424.724 355,358.5C 368.451,314.38 397.951,288.88 443.5,282C 457.876,279.313 472.21,277.479 486.5,276.5 Z"/></g>
<g><path style="opacity:1" fill="#fafafa" d="M 672.5,278.5 C 676.467,281.313 679.634,284.979 682,289.5C 683.719,296.78 680.885,299.947 673.5,299C 669.325,295.472 665.992,291.305 663.5,286.5C 666.52,283.811 669.52,281.144 672.5,278.5 Z"/></g>
<g><path style="opacity:1" fill="#6a695c" d="M 318.5,280.5 C 321.548,281.016 323.882,282.516 325.5,285C 321.5,292.333 317.5,299.667 313.5,307C 316.053,309.627 319.053,311.793 322.5,313.5C 326,307.167 329.5,300.833 333,294.5C 335.647,293.536 338.147,294.036 340.5,296C 341.022,296.561 341.355,297.228 341.5,298C 338.22,304.727 334.554,311.227 330.5,317.5C 334.5,319.833 338.5,322.167 342.5,324.5C 347.726,317.421 352.393,309.921 356.5,302C 359.489,301.999 361.822,303.332 363.5,306C 357.72,317.061 351.553,327.895 345,338.5C 329.721,330.449 314.887,321.782 300.5,312.5C 306.512,301.806 312.512,291.139 318.5,280.5 Z"/></g>
<g><path style="opacity:1" fill="#fcfcfc" d="M 572.5,316.5 C 590.246,315.735 596.413,323.735 591,340.5C 589.167,342.333 587.333,344.167 585.5,346C 578.679,348.996 571.679,351.496 564.5,353.5C 562.174,351.003 560.007,348.336 558,345.5C 557.567,333.033 562.4,323.366 572.5,316.5 Z"/></g>
<g><path style="opacity:1" fill="#fbfbfb" d="M 413.5,324.5 C 414.552,324.351 415.552,324.517 416.5,325C 414.274,329.661 413.941,334.494 415.5,339.5C 416.365,340.583 417.365,340.749 418.5,340C 420.017,338.315 421.684,336.815 423.5,335.5C 431.304,347.023 433.138,359.357 429,372.5C 428.91,366.849 426.576,362.516 422,359.5C 423.536,366.191 424.703,373.024 425.5,380C 425.08,385.928 423.08,391.261 419.5,396C 414.5,396.667 409.5,396.667 404.5,396C 398.435,389.366 394.935,381.533 394,372.5C 393.072,365.06 393.406,357.726 395,350.5C 396.858,355.695 400.192,359.695 405,362.5C 403.851,358.592 402.517,354.592 401,350.5C 398.519,338.466 402.686,329.799 413.5,324.5 Z"/></g>
<g><path style="opacity:1" fill="#6a695c" d="M 711.5,335.5 C 712.978,335.238 714.311,335.571 715.5,336.5C 717.105,339.314 718.105,342.314 718.5,345.5C 702.542,351.378 686.876,358.045 671.5,365.5C 669.306,362.119 667.973,358.452 667.5,354.5C 682.561,348.93 697.227,342.596 711.5,335.5 Z"/></g>
<g><path style="opacity:1" fill="#fdfdfc" d="M 547.5,343.5 C 562.7,356.888 569.867,373.888 569,394.5C 569.667,403.167 569.667,411.833 569,420.5C 561.108,427.198 552.608,433.031 543.5,438C 540.036,442.422 537.203,447.256 535,452.5C 533.391,464.77 531.224,476.936 528.5,489C 531.874,498.994 534.708,509.161 537,519.5C 537.667,525.833 537.667,532.167 537,538.5C 535.861,542.112 534.194,545.446 532,548.5C 524.121,555.38 515.955,561.88 507.5,568C 505.773,569.389 504.439,571.056 503.5,573C 508.733,579.635 512.233,587.135 514,595.5C 514.333,608.5 514.667,621.5 515,634.5C 517,637.833 519,641.167 521,644.5C 521.667,645.833 521.667,647.167 521,648.5C 516.25,654.327 512.25,660.66 509,667.5C 508.667,670.167 508.333,672.833 508,675.5C 501.686,681.272 494.353,683.606 486,682.5C 485.333,681.5 485.333,680.5 486,679.5C 488.732,675.759 491.066,671.759 493,667.5C 494.579,658.51 497.079,649.843 500.5,641.5C 496.099,627.797 491.599,614.131 487,600.5C 485.97,596.227 485.303,591.894 485,587.5C 483.128,590.873 482.295,594.54 482.5,598.5C 483.343,603.503 483.843,608.503 484,613.5C 472.145,626.54 462.811,641.207 456,657.5C 454.568,663.426 453.568,669.426 453,675.5C 445.747,685.667 439.247,696.333 433.5,707.5C 429.089,708.888 425.589,707.555 423,703.5C 418.333,696.833 418.333,690.167 423,683.5C 428.667,677.167 434.333,670.833 440,664.5C 442.341,650.44 445.008,636.44 448,622.5C 450.588,612.653 455.255,603.986 462,596.5C 462.992,562.534 474.992,533.201 498,508.5C 497.599,501.276 495.932,494.276 493,487.5C 486.406,485.905 482.073,481.905 480,475.5C 471.797,485.37 462.631,494.203 452.5,502C 450.956,503.187 449.289,503.52 447.5,503C 443.367,499.869 439.534,496.369 436,492.5C 430.994,483.16 424.828,474.66 417.5,467C 413.26,464.218 408.593,462.885 403.5,463C 398.851,460.545 396.017,456.712 395,451.5C 394.718,447.961 394.218,444.461 393.5,441C 393.645,440.228 393.978,439.561 394.5,439C 400.097,437.909 405.43,438.576 410.5,441C 420.167,449.333 429.167,458.333 437.5,468C 441.5,471.333 445.5,474.667 449.5,478C 450.5,478.667 451.5,478.667 452.5,478C 460.449,471.383 466.949,463.55 472,454.5C 476.485,448.841 482.319,445.674 489.5,445C 491,443.5 492.5,442 494,440.5C 493.675,435.175 493.008,429.841 492,424.5C 486.231,417.964 481.731,410.631 478.5,402.5C 479.521,393.285 483.521,385.785 490.5,380C 494.088,379.634 497.588,380.134 501,381.5C 506.198,378.366 510.864,379.033 515,383.5C 516.667,386.5 518.333,389.5 520,392.5C 521.405,396.072 521.738,399.739 521,403.5C 518.556,411.564 514.722,418.731 509.5,425C 510.154,432.003 513.821,434.67 520.5,433C 524.788,425.732 531.121,421.065 539.5,419C 543.753,416.29 547.92,413.457 552,410.5C 552.595,402.295 553.428,394.128 554.5,386C 554.167,383.167 553.833,380.333 553.5,377.5C 540.749,367.95 538.749,356.617 547.5,343.5 Z"/></g>
<g><path style="opacity:1" fill="#6a695c" d="M 291.5,354.5 C 301.572,353.431 307.406,357.764 309,367.5C 311.536,364.234 314.869,362.9 319,363.5C 324.428,364.696 329.928,365.363 335.5,365.5C 334.833,369.167 334.167,372.833 333.5,376.5C 329.737,376.143 326.07,375.31 322.5,374C 316.966,372.213 312.799,373.713 310,378.5C 307.955,382.24 307.455,386.073 308.5,390C 314.905,391.802 321.239,393.802 327.5,396C 325.998,399.005 324.998,402.171 324.5,405.5C 307.782,401.039 291.115,396.372 274.5,391.5C 276.559,381.155 279.726,371.155 284,361.5C 286.396,358.933 288.896,356.6 291.5,354.5 Z"/></g>
<g><path style="opacity:1" fill="#f9f9f9" d="M 293.5,365.5 C 300.194,365.206 303.028,368.206 302,374.5C 301.104,378.768 299.604,382.768 297.5,386.5C 293.492,385.497 289.492,384.497 285.5,383.5C 286.08,376.423 288.746,370.423 293.5,365.5 Z"/></g>
<g><path style="opacity:1" fill="#f7f7f6" d="M 536.5,367.5 C 539.43,369.311 541.43,371.978 542.5,375.5C 538.833,379.833 534.833,383.833 530.5,387.5C 528.167,385.833 526.167,383.833 524.5,381.5C 528.92,377.089 532.92,372.422 536.5,367.5 Z"/></g>
<g><path style="opacity:1" fill="#6b6a5d" d="M 725.5,371.5 C 726.5,371.5 727.5,371.5 728.5,371.5C 731.2,385.001 734.533,398.334 738.5,411.5C 735.785,413.264 732.785,414.264 729.5,414.5C 728.659,409.468 727.659,404.468 726.5,399.5C 713.085,402.52 699.752,405.854 686.5,409.5C 684.575,409.41 683.408,408.41 683,406.5C 682.689,404.444 682.189,402.444 681.5,400.5C 682.025,399.808 682.692,399.308 683.5,399C 696.86,395.763 710.193,392.596 723.5,389.5C 722.015,384.563 720.682,379.563 719.5,374.5C 721.444,373.199 723.444,372.199 725.5,371.5 Z"/></g>
<g><path style="opacity:1" fill="#fbfbfb" d="M 394.5,402.5 C 405.833,402.5 417.167,402.5 428.5,402.5C 428.5,405.167 428.5,407.833 428.5,410.5C 425.833,410.5 423.167,410.5 420.5,410.5C 419.662,419.868 418.496,429.201 417,438.5C 414.038,435.601 410.538,433.601 406.5,432.5C 404.95,425.199 403.617,417.866 402.5,410.5C 399.833,410.5 397.167,410.5 394.5,410.5C 394.5,407.833 394.5,405.167 394.5,402.5 Z"/></g>
<g><path style="opacity:1" fill="#fefefd" d="M 617.5,432.5 C 619.471,441.105 620.138,450.105 619.5,459.5C 620.791,459.737 621.791,459.404 622.5,458.5C 624.833,458.5 627.167,458.5 629.5,458.5C 629.5,470.5 629.5,482.5 629.5,494.5C 625.454,494.15 621.62,494.817 618,496.5C 616.525,501.063 615.692,505.73 615.5,510.5C 601.829,510.667 588.163,510.5 574.5,510C 572.229,506.124 570.229,502.124 568.5,498C 561.804,497.376 555.137,496.543 548.5,495.5C 557.644,484.185 565.811,472.185 573,459.5C 573.5,452.842 573.666,446.175 573.5,439.5C 579.491,439.034 585.491,438.701 591.5,438.5C 591.333,453.504 591.5,468.504 592,483.5C 594.925,486.059 597.925,486.059 601,483.5C 601.333,467.833 601.667,452.167 602,436.5C 606.971,434.465 612.138,433.132 617.5,432.5 Z"/></g>
<g><path style="opacity:1" fill="#a5a49c" d="M 617.5,432.5 C 618.209,431.596 619.209,431.263 620.5,431.5C 619.862,440.895 620.529,449.895 622.5,458.5C 621.791,459.404 620.791,459.737 619.5,459.5C 620.138,450.105 619.471,441.105 617.5,432.5 Z"/></g>
<g><path style="opacity:1" fill="#6a695c" d="M 689.5,437.5 C 707.782,440.723 725.949,444.39 744,448.5C 744.825,452.211 744.659,455.878 743.5,459.5C 727.746,468.044 711.746,476.044 695.5,483.5C 694.995,480.159 694.828,476.826 695,473.5C 699.004,471.76 702.504,469.427 705.5,466.5C 704.499,461.152 703.499,455.818 702.5,450.5C 698.978,449.042 695.311,448.042 691.5,447.5C 690.67,444.179 690.003,440.846 689.5,437.5 Z"/></g>
<g><path style="opacity:1" fill="#fafaf9" d="M 711.5,451.5 C 718.872,452.34 726.205,453.507 733.5,455C 727.167,457.833 720.833,460.667 714.5,463.5C 712.949,459.654 711.949,455.654 711.5,451.5 Z"/></g>
<g><path style="opacity:1" fill="#6a695c" d="M 265.5,430.5 C 280.396,431.816 295.063,434.316 309.5,438C 311.956,440.408 313.789,443.241 315,446.5C 316.569,455.027 315.235,463.027 311,470.5C 309.127,472.709 306.96,474.542 304.5,476C 289.722,475.82 275.055,474.32 260.5,471.5C 260.163,467.692 260.663,464.026 262,460.5C 274.084,462.727 286.251,464.727 298.5,466.5C 304.84,465.199 307.84,461.199 307.5,454.5C 307.682,451.184 306.349,448.684 303.5,447C 290.805,444.94 278.138,442.773 265.5,440.5C 264.808,437.23 264.808,433.897 265.5,430.5 Z"/></g>
<g><path style="opacity:1" fill="#f9f9f8" d="M 406.5,469.5 C 409.85,469.506 412.85,470.506 415.5,472.5C 416.499,482.812 416.832,493.145 416.5,503.5C 413.5,503.5 410.5,503.5 407.5,503.5C 407.514,492.154 407.181,480.821 406.5,469.5 Z"/></g>
<g><path style="opacity:1" fill="#6a695d" d="M 708.5,505.5 C 710.167,505.5 711.833,505.5 713.5,505.5C 713.5,508.833 713.5,512.167 713.5,515.5C 707.309,516.672 704.309,520.505 704.5,527C 704.637,529.898 705.137,532.731 706,535.5C 708.971,539.092 712.304,539.425 716,536.5C 718.64,529.708 720.64,522.708 722,515.5C 729.643,504.216 738.309,503.55 748,513.5C 753.691,525.119 752.191,535.619 743.5,545C 740.978,546.341 738.311,547.174 735.5,547.5C 735.5,544.167 735.5,540.833 735.5,537.5C 740.901,536.229 743.235,532.729 742.5,527C 743.413,519.912 740.413,516.912 733.5,518C 732.299,518.903 731.465,520.069 731,521.5C 729.44,527.865 727.773,534.198 726,540.5C 722.244,547.461 716.411,550.294 708.5,549C 702.508,546.341 698.675,541.841 697,535.5C 693.403,522.399 697.236,512.399 708.5,505.5 Z"/></g>
<g><path style="opacity:1" fill="#69685b" d="M 287.5,507.5 C 293.105,506.908 298.439,507.741 303.5,510C 304.787,511.41 305.954,512.91 307,514.5C 308.409,525.77 308.909,537.104 308.5,548.5C 291.167,548.5 273.833,548.5 256.5,548.5C 256.334,538.494 256.5,528.494 257,518.5C 260.311,509.596 266.478,506.762 275.5,510C 277.351,511.684 279.018,513.517 280.5,515.5C 282.512,512.492 284.846,509.825 287.5,507.5 Z"/></g>
<g><path style="opacity:1" fill="#fefefe" d="M 299.5,537.5 C 294.833,537.5 290.167,537.5 285.5,537.5C 285.5,532.833 285.5,528.167 285.5,523.5C 285.859,521.629 286.859,520.129 288.5,519C 292.591,517.773 296.091,518.606 299,521.5C 299.499,526.823 299.666,532.156 299.5,537.5 Z"/></g>
<g><path style="opacity:1" fill="#f5f5f5" d="M 268.5,518.5 C 272.355,517.845 275.188,519.179 277,522.5C 277.499,527.823 277.666,533.156 277.5,538.5C 273.167,538.5 268.833,538.5 264.5,538.5C 264.334,533.156 264.501,527.823 265,522.5C 265.69,520.65 266.856,519.316 268.5,518.5 Z"/></g>
<g><path style="opacity:1" fill="#fcfcfc" d="M 371.5,522.5 C 401.5,522.5 431.5,522.5 461.5,522.5C 461.5,531.167 461.5,539.833 461.5,548.5C 431.5,548.5 401.5,548.5 371.5,548.5C 371.5,539.833 371.5,531.167 371.5,522.5 Z"/></g>
<g><path style="opacity:1" fill="#fefffe" d="M 547.5,522.5 C 577.167,522.5 606.833,522.5 636.5,522.5C 636.5,530.833 636.5,539.167 636.5,547.5C 606.833,547.5 577.167,547.5 547.5,547.5C 547.5,539.167 547.5,530.833 547.5,522.5 Z"/></g>
<g><path style="opacity:1" fill="#b8b8b2" d="M 285.5,523.5 C 285.5,528.167 285.5,532.833 285.5,537.5C 290.167,537.5 294.833,537.5 299.5,537.5C 294.695,538.487 289.695,538.821 284.5,538.5C 284.179,533.305 284.513,528.305 285.5,523.5 Z"/></g>
<g><path style="opacity:1" fill="#d0cfcb" d="M 547.5,522.5 C 577.329,521.502 607.329,521.169 637.5,521.5C 637.5,530.5 637.5,539.5 637.5,548.5C 607.329,548.831 577.329,548.498 547.5,547.5C 577.167,547.5 606.833,547.5 636.5,547.5C 636.5,539.167 636.5,530.833 636.5,522.5C 606.833,522.5 577.167,522.5 547.5,522.5 Z"/></g>
<g><path style="opacity:1" fill="#fdfdfd" d="M 535.5,562.5 C 544.167,562.5 552.833,562.5 561.5,562.5C 561.5,588.167 561.5,613.833 561.5,639.5C 552.833,639.5 544.167,639.5 535.5,639.5C 535.5,613.833 535.5,588.167 535.5,562.5 Z"/></g>
<g><path style="opacity:1" fill="#f9f9f9" d="M 599.5,562.5 C 602.058,564.55 604.558,566.883 607,569.5C 607.333,576.833 607.667,584.167 608,591.5C 610.44,589.726 612.106,587.392 613,584.5C 614.173,577.563 614.84,570.563 615,563.5C 619.634,567.132 623.967,571.132 628,575.5C 628.696,579.905 628.363,584.239 627,588.5C 624.167,594.17 620.834,599.503 617,604.5C 609.03,597.531 601.364,590.198 594,582.5C 591.927,574.587 593.761,567.92 599.5,562.5 Z"/></g>
<g><path style="opacity:1" fill="#fbfbfb" d="M 585.5,563.5 C 586.328,569.653 586.828,575.987 587,582.5C 587.36,584.608 588.027,586.608 589,588.5C 601,600.5 613,612.5 625,624.5C 627.805,628.091 628.805,632.091 628,636.5C 626.587,639.661 624.92,642.661 623,645.5C 622.562,642.624 621.562,639.957 620,637.5C 606.333,624.5 592.667,611.5 579,598.5C 573.996,590.474 572.496,581.807 574.5,572.5C 578.501,569.825 582.168,566.825 585.5,563.5 Z"/></g>
<g><path style="opacity:1" fill="#fcfcfc" d="M 419.5,570.5 C 431.249,569.1 438.416,574.1 441,585.5C 441.831,592.856 441.665,600.189 440.5,607.5C 434.588,603.242 429.088,603.575 424,608.5C 422.714,618.735 422.048,629.068 422,639.5C 420.287,648.541 414.787,653.375 405.5,654C 393.878,655.918 385.378,651.751 380,641.5C 379.667,622.833 379.333,604.167 379,585.5C 376.984,583.316 374.817,581.316 372.5,579.5C 377.938,576.852 383.604,574.686 389.5,573C 392.827,572.03 394.993,573.197 396,576.5C 396.333,591.833 396.667,607.167 397,622.5C 399.706,625.978 402.706,626.311 406,623.5C 406.333,609.833 406.667,596.167 407,582.5C 409.168,576.347 413.335,572.347 419.5,570.5 Z"/></g>
<g><path style="opacity:1" fill="#fcfcfc" d="M 617.5,685.5 C 616.833,679.833 616.167,674.167 615.5,668.5C 615.245,665.984 614.411,663.65 613,661.5C 599.603,648.772 586.936,635.438 575,621.5C 573.47,615.381 574.803,610.048 579,605.5C 580.333,608.167 581.667,610.833 583,613.5C 597.967,626.133 611.967,639.8 625,654.5C 628.356,661.805 629.356,669.471 628,677.5C 624.624,680.383 621.124,683.049 617.5,685.5 Z"/></g>
<g><path style="opacity:1" fill="#fbfbfb" d="M 588.5,668.5 C 587.833,674.167 587.167,679.833 586.5,685.5C 582.243,682.749 578.41,679.416 575,675.5C 572.967,670.051 573.3,664.717 576,659.5C 578.919,654.66 582.086,649.994 585.5,645.5C 592.833,652.5 600.167,659.5 607.5,666.5C 608.662,671.467 608.829,676.467 608,681.5C 605.984,683.684 603.817,685.684 601.5,687.5C 599.879,685.376 598.046,683.376 596,681.5C 595.831,673.812 595.331,666.145 594.5,658.5C 590.965,660.902 588.965,664.236 588.5,668.5 Z"/></g>
<g><path style="opacity:1" fill="#fcfcfc" d="M 527.5,647.5 C 538.123,649.283 545.289,655.283 549,665.5C 551.229,689.272 540.395,700.772 516.5,700C 509.928,697.882 504.595,694.048 500.5,688.5C 505.359,686.146 509.859,683.146 514,679.5C 515.297,669.573 519.297,660.906 526,653.5C 527.128,651.655 527.628,649.655 527.5,647.5 Z"/></g>
<g><path style="opacity:1" fill="#a5a59d" d="M 588.5,668.5 C 588.829,674.537 588.496,680.537 587.5,686.5C 586.893,686.376 586.56,686.043 586.5,685.5C 587.167,679.833 587.833,674.167 588.5,668.5 Z"/></g>
<g><path style="opacity:1" fill="#bdbdb7" d="M 615.5,668.5 C 616.167,674.167 616.833,679.833 617.5,685.5C 617.44,686.043 617.107,686.376 616.5,686.5C 615.504,680.537 615.171,674.537 615.5,668.5 Z"/></g>
<g><path style="opacity:1" fill="#fbfbfa" d="M 504.5,704.5 C 507.764,707.097 510.764,710.097 513.5,713.5C 523.144,714.498 532.81,714.832 542.5,714.5C 542.5,718.833 542.5,723.167 542.5,727.5C 533.167,727.5 523.833,727.5 514.5,727.5C 514.5,738.167 514.5,748.833 514.5,759.5C 508.5,759.5 502.5,759.5 496.5,759.5C 496.5,748.833 496.5,738.167 496.5,727.5C 487.167,727.5 477.833,727.5 468.5,727.5C 468.5,723.167 468.5,718.833 468.5,714.5C 478.172,714.666 487.839,714.5 497.5,714C 500.051,710.956 502.384,707.789 504.5,704.5 Z"/></g>
<g><path style="opacity:1" fill="#fdfdfd" d="M 438.5,738.5 C 455.5,738.5 472.5,738.5 489.5,738.5C 485.834,756.357 474.834,763.857 456.5,761C 445.837,757.176 439.837,749.676 438.5,738.5 Z"/></g>
<g><path style="opacity:1" fill="#fdfdfd" d="M 521.5,738.5 C 538.5,738.5 555.5,738.5 572.5,738.5C 568.761,756.385 557.761,763.885 539.5,761C 528.801,757.146 522.801,749.646 521.5,738.5 Z"/></g>
<g><path style="opacity:1" fill="#6a695d" d="M 589.5,793.5 C 594.511,793.334 599.511,793.501 604.5,794C 613.548,799.211 614.881,806.044 608.5,814.5C 620.261,819.03 623.428,827.03 618,838.5C 608.956,847.409 598.456,849.909 586.5,846C 576.747,838.324 576.08,829.99 584.5,821C 573.531,815.763 571.864,808.43 579.5,799C 582.767,796.87 586.1,795.037 589.5,793.5 Z"/></g>
<g><path style="opacity:1" fill="#6b6a5d" d="M 415.5,796.5 C 418.994,796.614 421.994,797.78 424.5,800C 418.784,815.979 413.784,832.146 409.5,848.5C 405.529,847.955 401.862,846.621 398.5,844.5C 401.965,833.437 405.632,822.437 409.5,811.5C 405.102,809.758 400.768,807.925 396.5,806C 397.12,803.788 398.287,801.954 400,800.5C 406.191,802.676 411.358,801.343 415.5,796.5 Z"/></g>
<g><path style="opacity:1" fill="#fafaf9" d="M 590.5,801.5 C 598.81,799.337 602.644,802.337 602,810.5C 598.853,814.551 594.687,816.051 589.5,815C 583.975,810 584.309,805.5 590.5,801.5 Z"/></g>
<g><path style="opacity:1" fill="#69685c" d="M 457.5,805.5 C 464.241,805.171 470.908,805.671 477.5,807C 484.694,810.22 487.527,815.72 486,823.5C 484.356,826.311 482.19,828.644 479.5,830.5C 486.637,835.939 488.471,842.939 485,851.5C 477.758,859.076 468.925,861.576 458.5,859C 446.392,854.621 442.559,846.454 447,834.5C 448.938,831.894 451.438,830.061 454.5,829C 445.757,819.85 446.757,812.016 457.5,805.5 Z"/></g>
<g><path style="opacity:1" fill="#6b6a5d" d="M 525.5,805.5 C 545.391,805.855 551.891,815.188 545,833.5C 538.833,839 532.667,844.5 526.5,850C 534.816,849.877 543.149,849.71 551.5,849.5C 551.5,852.5 551.5,855.5 551.5,858.5C 538.486,858.932 525.486,859.599 512.5,860.5C 512.629,854.903 514.462,849.903 518,845.5C 524.806,839.605 531.14,833.272 537,826.5C 538.11,815.936 533.777,812.603 524,816.5C 521.895,819.107 521.062,822.107 521.5,825.5C 518.14,825.616 514.807,825.949 511.5,826.5C 510.447,815.589 515.114,808.589 525.5,805.5 Z"/></g>
<g><path style="opacity:1" fill="#fafaf9" d="M 463.5,812.5 C 472.232,811.401 476.065,815.068 475,823.5C 469.391,827.716 464.058,827.383 459,822.5C 458.077,818.017 459.577,814.683 463.5,812.5 Z"/></g>
<g><path style="opacity:1" fill="#fbfafa" d="M 596.5,822.5 C 606.49,820.658 610.656,824.658 609,834.5C 603.475,840.192 597.475,840.858 591,836.5C 587.739,829.698 589.572,825.031 596.5,822.5 Z"/></g>
<g><path style="opacity:1" fill="#f9f9f9" d="M 460.5,834.5 C 466.039,833.638 470.872,834.972 475,838.5C 477.367,842.999 476.533,846.832 472.5,850C 466.681,852.63 461.515,851.796 457,847.5C 455.578,844.97 455.245,842.303 456,839.5C 457.707,837.963 459.207,836.296 460.5,834.5 Z"/></g>
<g><path style="opacity:0.992" fill="#676659" d="M 93.5,933.5 C 365.167,933.5 636.833,933.5 908.5,933.5C 908.5,973.5 908.5,1013.5 908.5,1053.5C 636.833,1053.5 365.167,1053.5 93.5,1053.5C 93.5,1013.5 93.5,973.5 93.5,933.5 Z"/></g>
<g><path style="opacity:1" fill="#fcfcfc" d="M 169.5,954.5 C 184.504,954.333 199.504,954.5 214.5,955C 228.408,960.654 232.575,970.487 227,984.5C 224.933,987.07 222.433,989.07 219.5,990.5C 232.675,998.855 235.508,1009.86 228,1023.5C 225.01,1026.49 221.51,1028.66 217.5,1030C 201.557,1031.44 185.557,1031.94 169.5,1031.5C 169.5,1005.83 169.5,980.167 169.5,954.5 Z"/></g>
<g><path style="opacity:1" fill="#fcfcfc" d="M 289.5,954.5 C 294.833,954.5 300.167,954.5 305.5,954.5C 305.333,974.503 305.5,994.503 306,1014.5C 309.017,1019.59 313.517,1021.93 319.5,1021.5C 326.949,1022.2 332.115,1019.2 335,1012.5C 335.5,993.17 335.667,973.836 335.5,954.5C 340.833,954.5 346.167,954.5 351.5,954.5C 351.955,975.887 351.455,997.22 350,1018.5C 343.163,1029.59 333.163,1034.59 320,1033.5C 307.704,1034.18 298.038,1029.52 291,1019.5C 289.544,997.887 289.044,976.22 289.5,954.5 Z"/></g>
<g><path style="opacity:1" fill="#cbcbc7" d="M 418.5,954.5 C 418.5,980.167 418.5,1005.83 418.5,1031.5C 423.5,1031.5 428.5,1031.5 433.5,1031.5C 428.36,1032.49 423.026,1032.82 417.5,1032.5C 417.169,1006.33 417.502,980.328 418.5,954.5 Z"/></g>
<g><path style="opacity:1" fill="#fefefd" d="M 418.5,954.5 C 433.544,954.104 448.544,954.604 463.5,956C 478.578,960.878 483.078,970.712 477,985.5C 473.579,989.458 469.412,992.292 464.5,994C 469.935,995.769 473.768,999.269 476,1004.5C 477.091,1013.18 478.257,1021.85 479.5,1030.5C 474.695,1031.49 469.695,1031.82 464.5,1031.5C 464.035,1023.1 462.868,1014.77 461,1006.5C 459.488,1003.14 456.988,1001.14 453.5,1000.5C 447.021,999.509 440.354,999.176 433.5,999.5C 433.5,1010.17 433.5,1020.83 433.5,1031.5C 428.5,1031.5 423.5,1031.5 418.5,1031.5C 418.5,1005.83 418.5,980.167 418.5,954.5 Z"/></g>
<g><path style="opacity:1" fill="#fcfcfc" d="M 597.5,966.5 C 583.833,966.5 570.167,966.5 556.5,966.5C 556.178,972.358 556.511,978.025 557.5,983.5C 569.167,983.5 580.833,983.5 592.5,983.5C 592.5,988.167 592.5,992.833 592.5,997.5C 580.5,997.5 568.5,997.5 556.5,997.5C 556.5,1004.5 556.5,1011.5 556.5,1018.5C 570.167,1018.5 583.833,1018.5 597.5,1018.5C 597.5,1022.83 597.5,1027.17 597.5,1031.5C 578.5,1031.5 559.5,1031.5 540.5,1031.5C 540.5,1005.83 540.5,980.167 540.5,954.5C 559.5,954.5 578.5,954.5 597.5,954.5C 597.5,958.5 597.5,962.5 597.5,966.5 Z"/></g>
<g><path style="opacity:1" fill="#fcfcfc" d="M 719.5,1029.5 C 714.944,1031.44 709.944,1032.11 704.5,1031.5C 702.631,1025.89 700.964,1020.23 699.5,1014.5C 689.833,1014.5 680.167,1014.5 670.5,1014.5C 669.036,1020.23 667.369,1025.89 665.5,1031.5C 660.056,1032.11 655.056,1031.44 650.5,1029.5C 658.696,1004.74 667.196,980.078 676,955.5C 682,954.167 688,954.167 694,955.5C 702.804,980.078 711.304,1004.74 719.5,1029.5 Z"/></g>
<g><path style="opacity:1" fill="#fefdfd" d="M 770.5,954.5 C 775.833,954.5 781.167,954.5 786.5,954.5C 786.333,974.169 786.5,993.836 787,1013.5C 790.155,1019.16 794.988,1021.83 801.5,1021.5C 808.532,1021.91 813.365,1018.91 816,1012.5C 816.5,993.17 816.667,973.836 816.5,954.5C 821.833,954.5 827.167,954.5 832.5,954.5C 832.966,975.9 832.466,997.233 831,1018.5C 826.163,1027.32 818.663,1032.15 808.5,1033C 795.014,1035.72 783.514,1032.22 774,1022.5C 773.333,1021.17 772.667,1019.83 772,1018.5C 770.534,997.233 770.034,975.9 770.5,954.5 Z"/></g>
<g><path style="opacity:1" fill="#68675a" d="M 186.5,966.5 C 193.841,966.334 201.174,966.5 208.5,967C 215.155,970.712 216.322,975.879 212,982.5C 210.67,983.582 209.17,984.249 207.5,984.5C 200.5,984.5 193.5,984.5 186.5,984.5C 186.5,978.5 186.5,972.5 186.5,966.5 Z"/></g>
<g><path style="opacity:1" fill="#a7a69e" d="M 597.5,966.5 C 584.344,967.496 571.01,967.829 557.5,967.5C 557.5,972.833 557.5,978.167 557.5,983.5C 556.511,978.025 556.178,972.358 556.5,966.5C 570.167,966.5 583.833,966.5 597.5,966.5 Z"/></g>
<g><path style="opacity:1" fill="#b1b0a9" d="M 455.5,967.5 C 448.5,967.5 441.5,967.5 434.5,967.5C 434.5,973.833 434.5,980.167 434.5,986.5C 440.833,986.5 447.167,986.5 453.5,986.5C 447.021,987.491 440.354,987.824 433.5,987.5C 433.5,980.5 433.5,973.5 433.5,966.5C 441.019,966.175 448.352,966.508 455.5,967.5 Z"/></g>
<g><path style="opacity:1" fill="#67665a" d="M 455.5,967.5 C 463.109,970.057 465.275,975.057 462,982.5C 460.106,985.844 457.273,987.178 453.5,986.5C 447.167,986.5 440.833,986.5 434.5,986.5C 434.5,980.167 434.5,973.833 434.5,967.5C 441.5,967.5 448.5,967.5 455.5,967.5 Z"/></g>
<g><path style="opacity:1" fill="#6b6a5e" d="M 694.5,1001.5 C 688.074,1002.12 682.074,1001.45 676.5,999.5C 678.625,989.624 681.459,979.958 685,970.5C 688.63,980.685 691.797,991.019 694.5,1001.5 Z"/></g>
<g><path style="opacity:1" fill="#a9a8a0" d="M 186.5,966.5 C 186.5,972.5 186.5,978.5 186.5,984.5C 193.5,984.5 200.5,984.5 207.5,984.5C 200.352,985.492 193.019,985.825 185.5,985.5C 185.177,978.978 185.51,972.645 186.5,966.5 Z"/></g>
<g><path style="opacity:1" fill="#69685b" d="M 185.5,997.5 C 193.174,997.334 200.841,997.5 208.5,998C 215.053,1000.73 217.22,1005.56 215,1012.5C 214.215,1014.29 213.049,1015.79 211.5,1017C 202.916,1018.41 194.25,1018.91 185.5,1018.5C 185.5,1011.5 185.5,1004.5 185.5,997.5 Z"/></g>
<g><path style="opacity:1" fill="#b1b0aa" d="M 453.5,1000.5 C 447.167,1000.5 440.833,1000.5 434.5,1000.5C 434.828,1011.01 434.494,1021.35 433.5,1031.5C 433.5,1020.83 433.5,1010.17 433.5,999.5C 440.354,999.176 447.021,999.509 453.5,1000.5 Z"/></g>
<g><path style="opacity:1" fill="#abaaa2" d="M 676.5,999.5 C 682.074,1001.45 688.074,1002.12 694.5,1001.5C 688.355,1002.49 682.022,1002.82 675.5,1002.5C 675.263,1001.21 675.596,1000.21 676.5,999.5 Z"/></g>
<g><path style="opacity:1" fill="#a2a199" d="M 479.5,1030.5 C 480.043,1030.56 480.376,1030.89 480.5,1031.5C 475.014,1032.81 469.68,1032.81 464.5,1031.5C 469.695,1031.82 474.695,1031.49 479.5,1030.5 Z"/></g>
<g><path style="opacity:1" fill="#a6a59e" d="M 650.5,1029.5 C 655.056,1031.44 660.056,1032.11 665.5,1031.5C 660.36,1032.49 655.026,1032.82 649.5,1032.5C 649.263,1031.21 649.596,1030.21 650.5,1029.5 Z"/></g>
<g><path style="opacity:1" fill="#a6a59d" d="M 719.5,1029.5 C 720.404,1030.21 720.737,1031.21 720.5,1032.5C 714.974,1032.82 709.64,1032.49 704.5,1031.5C 709.944,1032.11 714.944,1031.44 719.5,1029.5 Z"/></g>
<g><path style="opacity:0.994" fill="#bd1a30" d="M 93.5,1071.5 C 365.167,1071.5 636.833,1071.5 908.5,1071.5C 908.5,1111.5 908.5,1151.5 908.5,1191.5C 636.833,1191.5 365.167,1191.5 93.5,1191.5C 93.5,1151.5 93.5,1111.5 93.5,1071.5 Z"/></g>
<g><path style="opacity:1" fill="#fefbfb" d="M 835.5,1110.5 C 835.5,1111.5 835.5,1112.5 835.5,1113.5C 832.941,1113.2 830.607,1113.53 828.5,1114.5C 825.833,1114.5 823.167,1114.5 820.5,1114.5C 819.705,1105.57 814.705,1101.57 805.5,1102.5C 797.764,1101.93 792.764,1105.26 790.5,1112.5C 791.318,1115.29 792.985,1117.46 795.5,1119C 805.109,1122.15 814.775,1125.15 824.5,1128C 838.221,1135.05 841.387,1145.55 834,1159.5C 829.031,1165.74 822.531,1169.57 814.5,1171C 799.674,1174.34 787.174,1170.51 777,1159.5C 774.189,1155.23 772.689,1150.57 772.5,1145.5C 777.5,1145.5 782.5,1145.5 787.5,1145.5C 790.775,1157.15 798.441,1161.65 810.5,1159C 820.222,1157.71 823.389,1152.54 820,1143.5C 818.745,1142.79 817.579,1141.96 816.5,1141C 805.828,1137.67 795.162,1134.33 784.5,1131C 775.913,1125.41 773.079,1117.58 776,1107.5C 779.476,1097.83 786.309,1092 796.5,1090C 806.21,1088.74 815.543,1090.08 824.5,1094C 830.553,1097.95 834.219,1103.45 835.5,1110.5 Z"/></g>
<g><path style="opacity:1" fill="#fefafa" d="M 164.5,1092.5 C 170.167,1092.5 175.833,1092.5 181.5,1092.5C 186.076,1111.48 191.576,1130.14 198,1148.5C 203.803,1130.29 209.136,1111.95 214,1093.5C 219.407,1092.53 224.907,1092.19 230.5,1092.5C 222.161,1118.52 213.827,1144.52 205.5,1170.5C 200.238,1170.8 195.072,1170.47 190,1169.5C 181.393,1143.85 172.893,1118.18 164.5,1092.5 Z"/></g>
<g><path style="opacity:1" fill="#fefbfb" d="M 278.5,1092.5 C 297.167,1092.5 315.833,1092.5 334.5,1092.5C 334.5,1096.83 334.5,1101.17 334.5,1105.5C 321.167,1105.5 307.833,1105.5 294.5,1105.5C 294.5,1110.83 294.5,1116.17 294.5,1121.5C 306.167,1121.5 317.833,1121.5 329.5,1121.5C 329.5,1126.17 329.5,1130.83 329.5,1135.5C 317.833,1135.5 306.167,1135.5 294.5,1135.5C 293.508,1142.65 293.175,1149.98 293.5,1157.5C 307.167,1157.5 320.833,1157.5 334.5,1157.5C 334.5,1161.5 334.5,1165.5 334.5,1169.5C 315.833,1169.5 297.167,1169.5 278.5,1169.5C 278.5,1143.83 278.5,1118.17 278.5,1092.5 Z"/></g>
<g><path style="opacity:1" fill="#fefcfc" d="M 451.5,1168.5 C 446.266,1169.8 440.933,1169.8 435.5,1168.5C 436.441,1159.05 434.941,1150.05 431,1141.5C 429.871,1139.86 428.371,1138.86 426.5,1138.5C 419.687,1137.51 412.687,1137.18 405.5,1137.5C 405.5,1148.17 405.5,1158.83 405.5,1169.5C 400.167,1169.5 394.833,1169.5 389.5,1169.5C 389.5,1143.83 389.5,1118.17 389.5,1092.5C 403.504,1092.33 417.504,1092.5 431.5,1093C 447.553,1095.62 453.719,1104.79 450,1120.5C 447.366,1126.46 442.866,1130.3 436.5,1132C 443.536,1134.37 447.703,1139.2 449,1146.5C 449.301,1153.92 450.134,1161.25 451.5,1168.5 Z"/></g>
<g><path style="opacity:1" fill="#fefdfd" d="M 509.5,1092.5 C 514.833,1092.5 520.167,1092.5 525.5,1092.5C 525.5,1118.5 525.5,1144.5 525.5,1170.5C 520.167,1170.5 514.833,1170.5 509.5,1170.5C 509.5,1144.5 509.5,1118.5 509.5,1092.5 Z"/></g>
<g><path style="opacity:1" fill="#e6a8b0" d="M 570.5,1093.5 C 591.327,1092.5 612.327,1092.17 633.5,1092.5C 633.818,1097.03 633.485,1101.37 632.5,1105.5C 632.5,1101.5 632.5,1097.5 632.5,1093.5C 611.833,1093.5 591.167,1093.5 570.5,1093.5 Z"/></g>
<g><path style="opacity:1" fill="#fefbfb" d="M 734.5,1168.5 C 729.695,1169.49 724.695,1169.82 719.5,1169.5C 718.039,1164.45 716.372,1159.45 714.5,1154.5C 704.833,1153.17 695.167,1153.17 685.5,1154.5C 683.628,1159.45 681.961,1164.45 680.5,1169.5C 675.305,1169.82 670.305,1169.49 665.5,1168.5C 673.495,1143.35 681.995,1118.35 691,1093.5C 697,1092.17 703,1092.17 709,1093.5C 718.005,1118.35 726.505,1143.35 734.5,1168.5 Z"/></g>
<g><path style="opacity:1" fill="#fefefe" d="M 570.5,1093.5 C 591.167,1093.5 611.833,1093.5 632.5,1093.5C 632.5,1097.5 632.5,1101.5 632.5,1105.5C 625.167,1105.5 617.833,1105.5 610.5,1105.5C 609.503,1126.66 609.169,1147.99 609.5,1169.5C 604.5,1169.5 599.5,1169.5 594.5,1169.5C 594.831,1147.99 594.497,1126.66 593.5,1105.5C 585.833,1105.5 578.167,1105.5 570.5,1105.5C 570.5,1101.5 570.5,1097.5 570.5,1093.5 Z"/></g>
<g><path style="opacity:1" fill="#db838f" d="M 427.5,1105.5 C 420.5,1105.5 413.5,1105.5 406.5,1105.5C 406.5,1111.83 406.5,1118.17 406.5,1124.5C 412.5,1124.5 418.5,1124.5 424.5,1124.5C 418.355,1125.49 412.022,1125.82 405.5,1125.5C 405.5,1118.5 405.5,1111.5 405.5,1104.5C 413.019,1104.18 420.352,1104.51 427.5,1105.5 Z"/></g>
<g><path style="opacity:1" fill="#bd1d31" d="M 427.5,1105.5 C 434.112,1107.38 436.612,1111.72 435,1118.5C 432.921,1122.96 429.421,1124.96 424.5,1124.5C 418.5,1124.5 412.5,1124.5 406.5,1124.5C 406.5,1118.17 406.5,1111.83 406.5,1105.5C 413.5,1105.5 420.5,1105.5 427.5,1105.5 Z"/></g>
<g><path style="opacity:1" fill="#c02737" d="M 708.5,1137.5 C 706.085,1138.81 703.252,1139.48 700,1139.5C 696.748,1139.48 693.915,1138.81 691.5,1137.5C 693.619,1127.64 696.453,1117.97 700,1108.5C 703.547,1117.97 706.381,1127.64 708.5,1137.5 Z"/></g>
<g><path style="opacity:1" fill="#e0909a" d="M 835.5,1110.5 C 836.434,1111.57 836.768,1112.9 836.5,1114.5C 833.833,1114.5 831.167,1114.5 828.5,1114.5C 830.607,1113.53 832.941,1113.2 835.5,1113.5C 835.5,1112.5 835.5,1111.5 835.5,1110.5 Z"/></g>
<g><path style="opacity:1" fill="#d26372" d="M 691.5,1137.5 C 693.915,1138.81 696.748,1139.48 700,1139.5C 703.252,1139.48 706.085,1138.81 708.5,1137.5C 709.404,1138.21 709.737,1139.21 709.5,1140.5C 703.167,1140.5 696.833,1140.5 690.5,1140.5C 690.263,1139.21 690.596,1138.21 691.5,1137.5 Z"/></g>
<g><path style="opacity:1" fill="#e4a3ac" d="M 593.5,1105.5 C 594.497,1126.66 594.831,1147.99 594.5,1169.5C 599.5,1169.5 604.5,1169.5 609.5,1169.5C 609.169,1147.99 609.503,1126.66 610.5,1105.5C 610.5,1127.17 610.5,1148.83 610.5,1170.5C 604.833,1170.5 599.167,1170.5 593.5,1170.5C 593.5,1148.83 593.5,1127.17 593.5,1105.5 Z"/></g>
<g><path style="opacity:1" fill="#d6717e" d="M 426.5,1138.5 C 419.833,1138.5 413.167,1138.5 406.5,1138.5C 406.828,1149.01 406.494,1159.35 405.5,1169.5C 405.5,1158.83 405.5,1148.17 405.5,1137.5C 412.687,1137.18 419.687,1137.51 426.5,1138.5 Z"/></g>
<g><path style="opacity:1" fill="#d97d89" d="M 294.5,1135.5 C 294.5,1142.5 294.5,1149.5 294.5,1156.5C 308.01,1156.17 321.344,1156.5 334.5,1157.5C 320.833,1157.5 307.167,1157.5 293.5,1157.5C 293.175,1149.98 293.508,1142.65 294.5,1135.5 Z"/></g>
<g><path style="opacity:1" fill="#e197a1" d="M 278.5,1092.5 C 278.5,1118.17 278.5,1143.83 278.5,1169.5C 297.167,1169.5 315.833,1169.5 334.5,1169.5C 315.674,1170.5 296.674,1170.83 277.5,1170.5C 277.169,1144.33 277.502,1118.33 278.5,1092.5 Z"/></g>
<g><path style="opacity:1" fill="#ce5463" d="M 435.5,1168.5 C 440.933,1169.8 446.266,1169.8 451.5,1168.5C 452.043,1168.56 452.376,1168.89 452.5,1169.5C 449.667,1169.83 446.833,1170.17 444,1170.5C 440.748,1170.48 437.915,1169.81 435.5,1168.5 Z"/></g>
<g><path style="opacity:1" fill="#e0949e" d="M 665.5,1168.5 C 670.305,1169.49 675.305,1169.82 680.5,1169.5C 675.32,1170.81 669.986,1170.81 664.5,1169.5C 664.624,1168.89 664.957,1168.56 665.5,1168.5 Z"/></g>
<g><path style="opacity:1" fill="#e0949e" d="M 734.5,1168.5 C 735.043,1168.56 735.376,1168.89 735.5,1169.5C 730.014,1170.81 724.68,1170.81 719.5,1169.5C 724.695,1169.82 729.695,1169.49 734.5,1168.5 Z"/></g>
</svg>